<svg width="22" height="22" viewBox="0 0 22 22" fill="none" xmlns="http://www.w3.org/2000/svg">
<path d="M11 1.83337C6.03079 1.83337 1.83337 6.03171 1.83337 11C1.83337 15.9684 6.03079 20.1667 11 20.1667C15.9693 20.1667 20.1667 15.9684 20.1667 11C20.1667 6.03171 15.9693 1.83337 11 1.83337ZM11 13.75C11.9094 13.75 12.6959 13.5071 13.102 13.101L14.3981 14.3981C13.366 15.4294 11.826 15.5834 11 15.5834C8.47279 15.5834 6.41671 13.5273 6.41671 11C6.41671 8.47279 8.47279 6.41671 11 6.41671C11.826 6.41671 13.3669 6.57071 14.3981 7.60196L13.102 8.89812C12.6968 8.49204 11.9103 8.25004 11 8.25004C9.50954 8.25004 8.25004 9.50954 8.25004 11C8.25004 12.4905 9.50954 13.75 11 13.75Z" fill="#928A97"/>
</svg>
